<svg width="154" height="154" viewBox="0 0 154 154" fill="none" xmlns="http://www.w3.org/2000/svg">
<rect width="154" height="154" fill="white"/>
<path d="M129.87 56.2065C129.87 56.9837 129.845 57.755 129.795 58.5196C128.778 74.109 117.561 86.9329 102.714 90.4539C100.07 91.081 97.3112 91.413 94.474 91.413C82.6491 91.413 72.1786 85.6456 65.7505 76.7846C61.5519 70.9968 59.0779 63.889 59.0779 56.2065C59.0779 48.524 61.5519 41.4163 65.7505 35.6284C72.1786 26.7674 82.6491 21 94.474 21C114.023 21 129.87 36.7625 129.87 56.2065Z" fill="#D9D9D9"/>
<path d="M146 80.2717C146 92.8242 135.769 103 123.149 103C114.21 103 106.469 97.8939 102.714 90.4539C101.169 87.391 100.299 83.9324 100.299 80.2717C100.299 67.7193 110.529 57.5435 123.149 57.5435C125.461 57.5435 127.692 57.8848 129.795 58.5196C139.174 61.3507 146 70.0183 146 80.2717Z" fill="#D9D9D9"/>
<path d="M77 56.2065C77 64.8315 72.5211 72.4161 65.7505 76.7846C62.2459 79.046 58.1271 80.4456 53.6977 80.6817C53.2538 80.7054 52.8069 80.7174 52.3571 80.7174C39.2682 80.7174 28.5627 70.5675 27.7623 57.7493C27.7305 57.2391 27.7143 56.7247 27.7143 56.2065C27.7143 42.6695 38.7473 31.6957 52.3571 31.6957C57.2956 31.6957 61.8947 33.1405 65.7505 35.6284C72.5211 39.997 77 47.5815 77 56.2065Z" fill="#D9D9D9"/>
<path d="M53.7013 80.2717C53.7013 80.4087 53.7001 80.5454 53.6977 80.6817C53.4778 93.0451 43.333 103 30.8506 103C18.2306 103 8 92.8242 8 80.2717C8 68.7611 16.6029 59.2489 27.7623 57.7493C28.7723 57.6136 29.8032 57.5435 30.8506 57.5435C43.4707 57.5435 53.7013 67.7193 53.7013 80.2717Z" fill="#D9D9D9"/>
<path d="M94.474 91.413C82.6491 91.413 72.1786 85.6456 65.7505 76.7846C62.2459 79.046 58.1271 80.4456 53.6977 80.6817C53.4778 93.0451 43.333 103 30.8506 103H123.149C114.21 103 106.469 97.8939 102.714 90.4539C100.07 91.081 97.3112 91.413 94.474 91.413Z" fill="#D9D9D9"/>
<rect x="47" y="106" width="7" height="24" rx="3" fill="#D9D9D9"/>
<rect x="101" y="105" width="7" height="26" rx="3" fill="#D9D9D9"/>
<rect x="74" y="105" width="7" height="23" rx="3" fill="#D9D9D9"/>
</svg>
